<svg width="121" height="25" viewBox="0 0 121 25" fill="none" xmlns="http://www.w3.org/2000/svg">
<path d="M12.376 24.32C10.6693 24.32 9.08 24.0427 7.608 23.488C6.15733 22.912 4.888 22.112 3.8 21.088C2.73333 20.0427 1.90133 18.816 1.304 17.408C0.706667 16 0.408 14.464 0.408 12.8C0.408 11.136 0.706667 9.6 1.304 8.192C1.90133 6.784 2.744 5.568 3.832 4.544C4.92 3.49867 6.18933 2.69867 7.64 2.144C9.09067 1.568 10.68 1.28 12.408 1.28C14.2427 1.28 15.9173 1.6 17.432 2.24C18.9467 2.85867 20.2267 3.78667 21.272 5.024L18.584 7.552C17.7733 6.67733 16.8667 6.02667 15.864 5.6C14.8613 5.152 13.7733 4.928 12.6 4.928C11.4267 4.928 10.3493 5.12 9.368 5.504C8.408 5.888 7.56533 6.432 6.84 7.136C6.136 7.84 5.58133 8.672 5.176 9.632C4.792 10.592 4.6 11.648 4.6 12.8C4.6 13.952 4.792 15.008 5.176 15.968C5.58133 16.928 6.136 17.76 6.84 18.464C7.56533 19.168 8.408 19.712 9.368 20.096C10.3493 20.48 11.4267 20.672 12.6 20.672C13.7733 20.672 14.8613 20.4587 15.864 20.032C16.8667 19.584 17.7733 18.912 18.584 18.016L21.272 20.576C20.2267 21.792 18.9467 22.72 17.432 23.36C15.9173 24 14.232 24.32 12.376 24.32ZM31.8978 24.224C30.1484 24.224 28.5911 23.8507 27.2258 23.104C25.8604 22.336 24.7831 21.2907 23.9938 19.968C23.2044 18.6453 22.8098 17.1413 22.8098 15.456C22.8098 13.7493 23.2044 12.2453 23.9938 10.944C24.7831 9.62133 25.8604 8.58667 27.2258 7.84C28.5911 7.09333 30.1484 6.72 31.8978 6.72C33.6684 6.72 35.2364 7.09333 36.6018 7.84C37.9884 8.58667 39.0658 9.61067 39.8338 10.912C40.6231 12.2133 41.0178 13.728 41.0178 15.456C41.0178 17.1413 40.6231 18.6453 39.8338 19.968C39.0658 21.2907 37.9884 22.336 36.6018 23.104C35.2364 23.8507 33.6684 24.224 31.8978 24.224ZM31.8978 20.8C32.8791 20.8 33.7538 20.5867 34.5218 20.16C35.2898 19.7333 35.8871 19.1147 36.3138 18.304C36.7618 17.4933 36.9858 16.544 36.9858 15.456C36.9858 14.3467 36.7618 13.3973 36.3138 12.608C35.8871 11.7973 35.2898 11.1787 34.5218 10.752C33.7538 10.3253 32.8898 10.112 31.9298 10.112C30.9484 10.112 30.0738 10.3253 29.3058 10.752C28.5591 11.1787 27.9618 11.7973 27.5138 12.608C27.0658 13.3973 26.8418 14.3467 26.8418 15.456C26.8418 16.544 27.0658 17.4933 27.5138 18.304C27.9618 19.1147 28.5591 19.7333 29.3058 20.16C30.0738 20.5867 30.9378 20.8 31.8978 20.8ZM52.5228 24.224C50.7734 24.224 49.2161 23.8507 47.8508 23.104C46.4854 22.336 45.4081 21.2907 44.6188 19.968C43.8294 18.6453 43.4348 17.1413 43.4348 15.456C43.4348 13.7493 43.8294 12.2453 44.6188 10.944C45.4081 9.62133 46.4854 8.58667 47.8508 7.84C49.2161 7.09333 50.7734 6.72 52.5228 6.72C54.2934 6.72 55.8614 7.09333 57.2268 7.84C58.6134 8.58667 59.6908 9.61067 60.4588 10.912C61.2481 12.2133 61.6428 13.728 61.6428 15.456C61.6428 17.1413 61.2481 18.6453 60.4588 19.968C59.6908 21.2907 58.6134 22.336 57.2268 23.104C55.8614 23.8507 54.2934 24.224 52.5228 24.224ZM52.5228 20.8C53.5041 20.8 54.3788 20.5867 55.1468 20.16C55.9148 19.7333 56.5121 19.1147 56.9388 18.304C57.3868 17.4933 57.6108 16.544 57.6108 15.456C57.6108 14.3467 57.3868 13.3973 56.9388 12.608C56.5121 11.7973 55.9148 11.1787 55.1468 10.752C54.3788 10.3253 53.5148 10.112 52.5548 10.112C51.5734 10.112 50.6988 10.3253 49.9308 10.752C49.1841 11.1787 48.5868 11.7973 48.1388 12.608C47.6908 13.3973 47.4668 14.3467 47.4668 15.456C47.4668 16.544 47.6908 17.4933 48.1388 18.304C48.5868 19.1147 49.1841 19.7333 49.9308 20.16C50.6988 20.5867 51.5628 20.8 52.5228 20.8ZM71.8998 24.224C70.0224 24.224 68.5718 23.744 67.5477 22.784C66.5238 21.8027 66.0118 20.3627 66.0118 18.464V3.136H70.0118V18.368C70.0118 19.1787 70.2144 19.808 70.6198 20.256C71.0464 20.704 71.6331 20.928 72.3798 20.928C73.2758 20.928 74.0224 20.6933 74.6198 20.224L75.7398 23.072C75.2704 23.456 74.6944 23.744 74.0118 23.936C73.3291 24.128 72.6251 24.224 71.8998 24.224ZM63.1958 10.24V7.04H74.5878V10.24H63.1958ZM86.4998 24.224C84.6011 24.224 82.9371 23.8507 81.5078 23.104C80.0998 22.336 79.0011 21.2907 78.2118 19.968C77.4438 18.6453 77.0598 17.1413 77.0598 15.456C77.0598 13.7493 77.4331 12.2453 78.1798 10.944C78.9478 9.62133 79.9931 8.58667 81.3158 7.84C82.6598 7.09333 84.1851 6.72 85.8918 6.72C87.5558 6.72 89.0384 7.08267 90.3398 7.808C91.6411 8.53333 92.6651 9.55733 93.4118 10.88C94.1584 12.2027 94.5318 13.76 94.5318 15.552C94.5318 15.7227 94.5211 15.9147 94.4998 16.128C94.4998 16.3413 94.4891 16.544 94.4678 16.736H80.2278V14.08H92.3558L90.7878 14.912C90.8091 13.9307 90.6064 13.0667 90.1798 12.32C89.7531 11.5733 89.1664 10.9867 88.4198 10.56C87.6944 10.1333 86.8518 9.92 85.8918 9.92C84.9104 9.92 84.0464 10.1333 83.2998 10.56C82.5744 10.9867 81.9984 11.584 81.5718 12.352C81.1664 13.0987 80.9638 13.984 80.9638 15.008V15.648C80.9638 16.672 81.1984 17.5787 81.6678 18.368C82.1371 19.1573 82.7984 19.7653 83.6518 20.192C84.5051 20.6187 85.4864 20.832 86.5958 20.832C87.5558 20.832 88.4198 20.6827 89.1878 20.384C89.9558 20.0853 90.6384 19.616 91.2358 18.976L93.3798 21.44C92.6118 22.336 91.6411 23.0293 90.4678 23.52C89.3158 23.9893 87.9931 24.224 86.4998 24.224ZM98.374 24V0.255999H102.374V24H98.374ZM112.904 24.224C111.475 24.224 110.099 24.0427 108.776 23.68C107.475 23.296 106.44 22.8373 105.672 22.304L107.208 19.264C107.976 19.7547 108.893 20.16 109.96 20.48C111.027 20.8 112.093 20.96 113.16 20.96C114.419 20.96 115.325 20.7893 115.88 20.448C116.456 20.1067 116.744 19.648 116.744 19.072C116.744 18.6027 116.552 18.2507 116.168 18.016C115.784 17.76 115.283 17.568 114.664 17.44C114.045 17.312 113.352 17.1947 112.584 17.088C111.837 16.9813 111.08 16.8427 110.312 16.672C109.565 16.48 108.883 16.2133 108.264 15.872C107.645 15.5093 107.144 15.0293 106.76 14.432C106.376 13.8347 106.184 13.0453 106.184 12.064C106.184 10.976 106.493 10.0373 107.112 9.248C107.731 8.43733 108.595 7.81867 109.704 7.392C110.835 6.944 112.168 6.72 113.704 6.72C114.856 6.72 116.019 6.848 117.192 7.104C118.365 7.36 119.336 7.72267 120.104 8.192L118.568 11.232C117.757 10.7413 116.936 10.4107 116.104 10.24C115.293 10.048 114.483 9.952 113.672 9.952C112.456 9.952 111.549 10.1333 110.952 10.496C110.376 10.8587 110.088 11.3173 110.088 11.872C110.088 12.384 110.28 12.768 110.664 13.024C111.048 13.28 111.549 13.4827 112.168 13.632C112.787 13.7813 113.469 13.9093 114.216 14.016C114.984 14.1013 115.741 14.24 116.488 14.432C117.235 14.624 117.917 14.8907 118.536 15.232C119.176 15.552 119.688 16.0107 120.072 16.608C120.456 17.2053 120.648 17.984 120.648 18.944C120.648 20.0107 120.328 20.9387 119.688 21.728C119.069 22.5173 118.184 23.136 117.032 23.584C115.88 24.0107 114.504 24.224 112.904 24.224Z" fill="#192252"/>
</svg>
